<?xml version="1.0" encoding="UTF-8"?>
<svg width="210mm" height="1920mm" version="1.1" viewBox="0 0 744.09449 6803.1496" xmlns="http://www.w3.org/2000/svg">
 <g transform="translate(0 5750.8)" stroke="#000" stroke-dashoffset="210" stroke-linecap="round" stroke-linejoin="round" stroke-width="5">
  <path d="m-644.44 1067.2c0.23903-0.7672 18.903 3.9411 51.111 14.373 37.633 12.189 72.417 24.993 132.48 47.337 52.268 19.44 121.16 45.012 189.31 64.416 13.781 3.9245 27.814 7.6823 42.079 11.235 61.129 15.222 118.63 24.706 172.63 29.594 76.02 6.8903 142.16 4.5174 187.71 1.4845 45.994-3.0627 72.651-6.7477 72.832-5.4755 0.10658 0.7484-26.291 6.3278-72.37 10.988-45.671 4.6194-112.11 8.3028-188.95 2.1262-54.518-4.3887-112.67-13.673-174.27-29.012-14.381-3.5813-28.522-7.3857-42.399-11.373-68.993-19.827-137.18-45.829-189.52-66.226-68.471-26.673-85.292-33.599-131.09-50.586-31.652-11.74-49.821-17.998-49.546-18.88z"/>
  <path d="m570.37 1226.4c-0.0105-2.1676 86.672-1.5919 225.9-9.1876h4e-5c75.117-4.0955 162.77-10.616 262.37-21.386 38.096-6.3645 77.932-14.092 117.96-24.098 30.654-7.6623 61.985-16.693 92.486-28.495 12.442-4.826 24.866-10.066 36.814-16.118 9.3976-4.7602 18.419-9.9811 26.933-15.862 7.326-5.0631 14.185-10.552 20.075-16.814 4.8419-5.1692 9.0352-10.763 11.809-16.872 2.4283-5.3253 3.8153-11.074 3.7357-16.716-0.03-5.8828-1.6553-11.821-4.2258-17.318-3.1649-6.7681-7.8491-12.92-13.096-18.578-6.8054-7.3106-14.654-13.708-22.829-19.565-23.78-17.031-50.563-29.709-76.473-40.692l-1e-4 -2e-5c-40.341-17.087-81.582-30.414-119.46-41.563-70.469-13.269-134.71-16.433-187.6-15.504-48.625 0.84122-97.487 5.4618-122.58 7.8068-28.679 2.6804-44.316 4.2158-44.398 3.5546-0.0646-0.5236 15.428-3.1971 44.018-6.9366 25.772-3.3708 73.097-9.0413 122.79-10.726 53.312-1.7915 118.26 0.66488 189.72 13.52 38.268 10.908 80.025 24.093 121.13 41.22l1e-4 2e-5c26.252 10.929 53.679 23.817 78.489 41.403 8.5523 6.0598 16.906 12.857 24.353 20.778 5.769 6.1153 11.038 13.087 14.852 21.057v1e-4c3.1367 6.5554 5.0945 13.862 5.2148 21.431 0.065 7.2802-1.6094 14.449-4.6068 20.967-3.3972 7.3622-8.1851 13.859-13.591 19.567-6.5353 6.9257-13.924 12.88-21.659 18.203-8.956 6.1662-18.362 11.619-28.082 16.555-12.359 6.2762-25.089 11.647-37.738 16.515-31.063 11.983-62.796 21.084-93.714 28.721-40.49 10.001-80.686 17.64-119.07 23.854-99.853 10.304-188.04 16.115-263.28 19.241h-4e-5c-139.54 5.7907-226.24 2.6733-226.24 2.037z"/>
  <path d="m792.59 896.81c-0.69367-0.26224 6.561-19.829 16.673-56.333 5.1569-18.618 10.759-40.47 16.804-67.19 9.8562-43.565 19.881-95.367 28.818-157.45 7.3876-51.328 13.906-108.98 17.518-170.72v-6e-5c3.1643-50.709 4.5714-105.53 1.137-161.36-35.81-42.282-71.885-85.039-110-130.24 2.2225 9.2203 4.3728 18.14 6.6131 27.434 8.0068 33.216 15.783 65.491 23.507 97.664-48.444 137.63-85.282 241.52-131.09 348.95-43.547 101.86-81.754 174.07-115.69 229.91-32.11 52.829-53.878 80.353-54.28 80.072-0.98793-0.69112 19.455-29.118 50.241-82.465 32.768-56.782 69.426-128.39 112.17-230.72 45.144-107.79 80.582-208.8 129.11-346.4-5.6109-32.596-11.213-65.306-16.974-98.959-1.6286-9.5145-3.1418-18.356-4.7575-27.795 41.545 44.742 80.855 87.098 119.63 129.02 3.7314 57.471 2.4887 113.64-0.65348 165.44l-1e-5 6e-5c-4.0033 62.037-11.011 119.85-18.962 171.29-9.602 62.131-20.417 114.12-31.12 157.56-6.5586 26.622-12.734 48.553-18.451 67.004-11.259 36.34-19.706 55.488-20.235 55.288z"/>
  <path d="m462.96 937.55c-0.034 1.1734-64.338-0.0871-170.46 4.5429-56.352 2.4593-116.58 6.0456-191.62 11.48h-5e-5c-112.9 8.1036-203.04 16.043-338.29 27.15-25.233 2.0722-49.973 4.0763-74.527 6.0152-51.426-23.192-99.213-49.723-142.87-77.158-46.868-29.633-90.148-61.053-128.09-90.188-62.304-47.838-144.45-117.01-174.49-141.99-41.554-34.56-65.358-53.985-64.83-54.663 0.53279-0.68466 25.345 17.466 67.831 50.956 22.026 17.363 122.83 98.702 176.51 139.1 38.078 28.655 81.415 59.64 128.09 88.815 42.755 26.891 89.407 52.912 139.51 75.649 24.455-2.0029 48.938-4.0416 74.068-6.144 129.05-10.796 229.42-19.298 336.51-26.273l4e-5 -1e-5c74.612-4.8131 136.05-7.7556 191.99-9.2734 106.42-2.8887 170.73 0.67184 170.69 1.9889z"/>
  <path d="m-811.11 619.03c-0.60591 0.42578-2.463-3.1536-9.0627-6.1241-3.0504-1.3752-6.7412-2.4078-11.484-2.9332h-1e-5c-8.1892-0.90553-17.259-0.12371-28.93 2.7071-9.5449 2.3406-19.903 5.9775-30.739 11.391-8.2359 3.4372-17.043 7.7754-24.508 13.656 37.997 42.821 93.027 105.06 146.22 167.61 4.9498 5.82 9.8474 11.599 14.695 17.341 35.781 43.235 65.843 80.574 93.767 117.42l1e-5 2e-5c9.8553 13.004 18.727 25.02 27.08 36.893 6.1224 8.6997 11.572 16.722 16.611 24.885 1.7753 2.8759 3.4523 5.7018 5.0223 8.5689 1.1448 2.0875 2.2278 4.1849 3.186 6.3723 0.61996 1.3872 1.219 2.9104 1.6201 4.6218 0.13372 0.5465 0.2354 1.2013 0.26135 1.9585l1e-5 1e-4c0.0483 0.5138-0.0473 1.2258-0.34096 2.0968l-1e-5 1e-4c-0.25664 0.7408-0.81406 1.4271-1.6585 2.0061-0.887 0.471-1.6565 0.66-2.2652 0.6092-0.74948-0.026-1.3461-0.1427-1.787-0.3025h-2e-5c-0.59492-0.1938-1.1097-0.4183-1.5504-0.6473-1.177-0.6062-2.1985-1.2943-3.0981-1.9671-1.1827-0.8749-2.2824-1.7916-3.3109-2.7046-2.4984-2.2159-4.7525-4.5305-6.7796-6.8194-2.0973-2.3606-3.982-4.7173-5.6122-7.2212-0.67143-1.0262-1.3042-2.104-1.8392-3.2739-0.40391-0.8031-0.76825-1.8441-0.88085-3.1118-0.0517-0.4792 0.0192-1.0753 0.24837-1.7515 0.24812-0.64364 0.67525-1.1839 1.2502-1.5893 0.66517-0.41127 1.2714-0.60662 1.7731-0.63673h1e-5c0.69217-0.0684 1.291-0.0291 1.787 0.0608 1.628 0.27629 3.0399 0.82543 4.2298 1.3567 2.1437 0.93247 4.128 2.0176 5.8534 3.0169 12.279 7.1034 17.781 12.621 17.653 12.814-0.55391 0.8359-6.761-3.7248-19.29-9.7127-1.7466-0.8337-3.6975-1.7264-5.6783-2.4283-1.1535-0.3973-2.295-0.7807-3.3247-0.8582-0.3037-0.016-0.52973-0.029-0.65093 0.013-0.0705 0.048-0.0394 0.016 0.14685-0.06 0.17799-0.1273 0.2969-0.2634 0.37482-0.4479 0.0366-0.1561 0.0735-0.1864 0.063-0.1065 5e-3 0.3158 0.26701 0.7758 0.57491 1.4459 0.43793 0.8436 1.0025 1.6778 1.6462 2.5684 1.5697 2.1597 3.4045 4.2168 5.4998 6.3715 2.0188 2.0686 4.2219 4.1372 6.608 6.0751 0.98171 0.7964 1.9871 1.5678 3.019 2.2645 0.81294 0.5427 1.5887 1.0337 2.34 1.3683 0.27817 0.1217 0.5054 0.2159 0.682 0.2557 0.15119 0.019 0.16702 0.037 0.0399 0.01-0.13649-0.052-0.42098 0.048-0.90468 0.2695-0.4579 0.3396-0.73251 0.6396-0.82525 0.9541l-1e-5 1e-4c-0.0733 0.299-0.12409 0.3741-0.0959 0.2715-2e-3 -0.1377-0.0641-0.3699-0.14253-0.7009-0.26846-1.0579-0.78367-2.174-1.3782-3.4425-0.91301-1.9048-1.9765-3.7908-3.1385-5.7581-1.588-2.6837-3.2925-5.3532-5.1155-8.1138-5.1899-7.8582-10.749-15.571-17.052-24.083-8.6031-11.616-17.606-23.296-27.678-36.122l-2e-5 -2e-5c-29.001-36.931-58.225-72.514-94.619-116.32-4.8398-5.941-9.7226-11.925-14.653-17.958-54.974-67.268-105.12-127.41-143.95-173.71 8.5822-8.3787 18.169-14.574 26.993-19.314 11.473-5.2776 22.432-8.6474 32.461-10.629 12.163-2.4325 22.045-2.6429 30.624-1.0772l1e-5 1e-5c5.0202 0.91433 8.9983 2.451 12.129 4.2897 6.9394 4.0777 7.909 8.3723 7.884 8.3898z"/>
  <path d="m-622.22 1022.7c1.5145 1.7141-3.4694 6.6426-7.6277 15.108-1.3968 2.8837-2.745 6.2421-3.0123 9.5238-0.13057 1.3513-0.10542 2.7559 0.0969 4.1506 0.14592 1.0058 0.37992 1.9781 0.69567 2.898 0.71524 2.1723 1.9519 4.2276 3.3289 6.0409 1.5001 1.9577 3.2374 3.6513 4.9212 5.081 1.8474 1.5466 3.4191 2.6717 4.9639 3.6219 0.76666 0.4673 1.3058 0.7976 1.9098 1.1135 0.37796 0.1656 1.0092 0.569 1.095 0.6126 0.0883 0.048 0.10058 0.1546 0.0756 0.2483-0.0578 0.1071-0.0664 0.2831-0.0699 0.4419 0.0501 0.2165 0.15776 0.2248 0.26941 0.1731 1.1476-0.7371-0.41018-0.2268 0.76097-0.8655 0.2494-0.136 0.82365-0.1921 1.283 0.527 0.16056 0.2512 0.28152 0.6484 0.17244 1.2365-0.12554 0.4456-0.36385 0.8783-0.73027 1.1807-0.35469 0.3015-0.73985 0.5372-1.0926 0.6669-0.81137 0.3279-1.7069 0.4912-2.543 0.5076-0.97193 0.044-2.0074-0.031-3.0933-0.2179-2.2382-0.3792-4.7429-1.1994-7.3599-2.5752-2.4871-1.2943-5.1097-3.1142-7.5307-5.5876-2.2695-2.3073-4.3269-5.252-5.6963-8.8101-0.5825-1.5498-1.0049-3.1745-1.2506-4.8479-0.341-2.3227-0.32603-4.6323-7.5e-4 -6.8479 0.82694-5.265 3.0731-9.5924 5.4797-12.825 6.8474-9.2602 14.081-11.544 14.955-10.556z"/>
  <path d="m-859.26 1722.7c-0.26355-0.9018 37.596-12.924 103.69-32.745 87.07-26.11 139.47-41.08 272.83-80.354 101.51-29.894 225.57-66.884 348.82-107.47 1.5002-0.494 2.9992-0.9882 4.4969-1.4825 128.83-42.52 241.6-84.042 344.35-125.89 107.11-43.629 193.98-83.872 255.47-113.32 61.114-29.274 95.759-47.112 96.271-46.139 0.35807 0.681-33.477 20.072-94.009 50.729-60.82 30.803-147.49 72.31-254.41 116.79-102.42 42.61-215.73 84.81-344.53 127.33-1.5 0.4951-3.0012 0.9901-4.5037 1.4849-123.88 40.794-247.29 77.092-349.5 106.39-101.84 29.191-218.15 61.512-273.85 76.895-66.504 18.37-104.86 28.697-105.12 27.787z"/>
  <path d="m251.85 1207.9c0.411 0.6479-24.242 17.888-69.147 45.144-46.323 28.118-108.68 63.49-190.39 104.65-83.181 41.902-173.4 83.34-279.33 128.77-2.3785 1.0203-4.7608 2.0408-7.1472 3.0617-123.75 52.939-331.54 136.6-401.94 165.4-102.93 42.12-166.3 69.036-166.86 67.78-0.56085-1.2671 61.814-30.478 164.13-74.301 1269.5-543.75-922.55 398.03 400.74-168.08 2.3838-1.0198 4.7636-2.039 7.1396-3.0576 106.31-45.577 195.56-86.032 279.44-127.27 82.389-40.505 144.23-74.271 191.68-101.28 45.555-25.931 71.118-41.721 71.683-40.83z"/>
  <path d="m-362.96 944.95c-3.3109-0.40377 4.408-67.849 15.788-149.67-0.36481-0.0338-0.72991-0.0676-1.0953-0.10153-24.799-2.3004-47.581-4.522-68.352-6.6976-12.143 44.595-22.097 75.562-24.119 74.985-2.0163-0.57609 6.0022-32.555 20.326-80.571 22.957 2.1974 49.135 4.8717 77.451 7.8829 0.41699 0.0443 0.83361 0.0887 1.2498 0.13299-9.0719 86.044-17.957 154.44-21.249 154.04z"/>
  <path d="m-648.15 1082c1.6017 2.999-140.88 78.725-324.01 173.89h-3e-5c14.679 3.6041 28.29 6.9348 43.385 10.637 4.6016 1.1286 9.1779 2.2518 13.741 3.3731h3e-5c204.41-86.114 369.5-153.48 370.59-150.87 1.095 2.6072-163.2 73.59-370.15 160.24h-4e-5c-4.9051-1.8374-9.8256-3.682-14.773-5.5373-16.504-6.1894-30.587-11.479-46.62-17.49 0 0 3e-5 -1e-4 3e-5 -1e-4 183.48-100.65 326.24-177.25 327.84-174.25z"/>
  <path d="m259.26 1496.8c0.36305-0.8478 10.551 3.239 29.214 9.0822 17.793 5.5708 46.598 13.711 79.751 16.468 24.785 2.0549 54.343 1.3486 83.503-7.417 19.86-5.9793 40.18-15.85 56.568-31.11 11.71-10.918 21.616-24.762 26.471-40.451 0.34188-1.1049 0.65775-2.2159 0.94687-3.3328 2.0153-7.6933 2.7867-15.614 2.2037-23.326-0.59046-7.9267-2.6139-15.669-5.7965-22.766-7.6258-17.25-22.352-30.52-37.781-39.666-24.674-14.581-53.175-20.391-77.108-23.141h-2e-5c-35.21-4.0049-68.073-1.7239-87.879 0.028-21.09 1.8658-32.894 3.6001-33.057 2.6682-0.11134-0.6371 11.428-3.8728 32.524-7.0907 20.009-3.052 52.792-6.6359 89.2-3.4394 0 1e-4 2e-5 1e-4 2e-5 1e-4 24.629 2.1347 54.291 7.6851 81.008 22.885 16.848 9.5589 33.031 24.074 42.073 43.696 3.6872 8.1005 6.0347 16.943 6.7468 26.067 0.68368 8.8697-0.16953 17.893-2.4617 26.622-0.3353 1.2637-0.69883 2.5191-1.0898 3.7657-5.5558 17.713-16.429 32.962-29.307 44.734-17.95 16.427-39.633 26.783-60.657 32.76-30.847 8.7833-61.435 8.9451-86.847 6.1217-70.755-7.8443-107.65-34.514-108.23-33.159z"/>
  <path d="m470.37 1333.8c0.49714 0.9998-4.5154 4.0778-12.405 10.2-7.5124 5.8295-18.927 15.489-26.672 29.096-3.5556 6.1709-6.4597 13.216-8.3498 20.96-1.5093 6.1643-2.3497 12.687-2.5814 19.505-0.0328 0.9648-0.0531 1.9275-0.0618 2.8874-0.17288 17.112 3.4722 33.91 7.0814 47.536 7.5447 28.366 15.651 46.604 13.359 47.592-1.0414 0.449-12.07-16.432-21.572-45.138-4.603-13.857-8.9273-31.325-8.8635-50.056 5e-3 -1.0481 0.0242-2.101 0.0595-3.1579 0.24938-7.4692 1.2698-14.705 3.0904-21.59 2.2988-8.6707 5.8457-16.48 10.165-23.22 9.6591-14.918 22.626-24.047 31.384-28.917 9.125-5.0736 14.996-6.4455 15.367-5.6992z"/>
  <path d="m833.33 781.99c-0.29521-0.77368 7.3952-5.2127 21.993-9.9479 14.44-4.6841 36.125-9.6818 62.109-9.5643 21.191 0.0889 45.246 3.6642 68.792 13.548 2.7064 1.1361 5.3657 2.3389 7.9758 3.607 24.592 11.946 43.117 29.271 55.053 47.846 12.48 19.527 16.822 39.115 18.167 52.127 1.3806 13.359-0.054 20.896-0.7562 20.903-1.0926 0.01-1.4176-7.4881-4.1735-20.118-2.683-12.296-8.0649-30.585-20.359-48.156-11.72-16.846-29.28-32.486-52.287-43.617-2.4501-1.1852-4.947-2.3129-7.4895-3.3822-22.084-9.2881-44.866-13.037-65.107-13.801-24.81-0.92812-46.05 2.6516-60.536 5.7629-14.646 3.1456-22.981 5.8424-23.382 4.7924z"/>
  <path d="m996.3 796.81c0.44238 0.92864-2.3623 3.1459-7.1903 6.6637-4.4553 3.2462-12.011 8.5498-18.328 15.047-5.1531 5.2624-9.9573 11.941-13.329 19.91-0.0876 0.20433-0.17433 0.40946-0.26026 0.61539-3.3366 7.9962-5.3062 17.026-6.9308 24.582-4.1908 19.728-7.1557 33.556-9.5173 33.183-0.97341-0.1537-1.3354-3.7496-1.2436-9.8197 0.0861-5.692 0.61789-15.048 1.8936-24.873 1.0141-7.9544 2.7341-17.561 6.5612-26.891 0.0972-0.237 0.1956-0.47337 0.29516-0.70913 4.01-9.3897 9.9602-16.961 16.389-22.551 7.9779-6.882 16.361-11.036 21.898-13.207 5.7596-2.259 9.3602-2.7925 9.7619-1.9492z"/>
  <path d="m1270.4 985.7c0.5493 0.86363-6.1675 6.8089-20.041 13.2-6.5053 3.0002-13.906 5.8433-22.924 8.7783-7.0467 2.2947-13.879 4.263-21.975 6.6001-5.7558 1.665-12.099 3.4535-17.975 5.589-2.2285 0.8125-4.4131 1.6696-6.4363 2.6736-1.5661 0.797-2.9783 1.5688-4.0215 2.4749-0.7162 0.7065-1.2716 1.1919-1.2713 1.4916-0.076 0.036-0.027 0.3517 0.047 0.6512 0.1306 0.7058 0.8859 1.5901 1.8307 2.7564 1.4545 1.6461 3.3279 3.1422 5.416 4.7003 0.5231 0.432 1.0541 0.8576 1.5927 1.2776 5.8985 4.5993 12.636 8.44 19.127 12.07 51.24-24.786 91.436-42.376 92.557-40.041 1.1201 2.3335-38.315 22.971-92.628 48.848-7.8577-3.5438-16.382-7.5644-24.403-12.681-0.7307-0.4661-1.4557-0.9403-2.1748-1.4231-2.369-1.7244-4.7492-3.6981-6.921-6.113-1.5028-1.5748-2.9431-3.7135-3.8798-6.4757-0.7227-2.2918-0.6517-4.8182 0.2774-7.2699 1.1165-2.4619 2.6523-4.2322 4.2135-5.3889 2.0185-1.5989 4.0935-2.7493 6.0321-3.6353 2.536-1.1854 5.0691-2.1262 7.5002-2.9365 6.4227-2.1473 12.968-3.7761 18.804-5.2124 8.8862-2.1931 14.399-3.4595 22.104-5.4445 9.1422-2.3571 16.26-4.4282 22.969-6.672 13.875-4.6478 21.596-8.7362 22.18-7.8182z"/>
  <path d="m-262.96 1122.7c0.0899-2.7585 76.489-2.5085 170.53 0.5582 94.044 3.0667 170.3 7.7944 170.21 10.553-0.08995 2.7585-76.489 2.5085-170.53-0.5582-94.044-3.0667-170.3-7.7944-170.21-10.553z"/>
  <path d="m181.48 1119c-0.0575-2.7594 79.54-6.6582 177.67-8.7026 98.133-2.0445 177.82-1.4642 177.88 1.2952 0.0575 2.7594-79.54 6.6582-177.67 8.7026-98.133 2.0445-177.82 1.4642-177.88-1.2952z"/>
  <path d="m574.07 1100.5c0.0862-2.7587 26.704-4.1679 59.415-3.1457s59.189 4.0907 59.103 6.8494c-0.0862 2.7587-26.704 4.1679-59.415 3.1457s-59.189-4.0907-59.103-6.8494z"/>
  <path d="m777.78 1093.1c-0.13783-2.7566 49.528-7.4827 110.86-10.549s111.22-3.3184 111.36-0.5618c0.1378 2.7566-49.528 7.4827-110.86 10.549s-111.22 3.3184-111.36 0.5618z"/>
  <path d="m1077.8 1022.7c0 1.8401-23.135 2.7105-57.277 1.7195 3.693 23.088 8.3966 53.09 12.979 83.622 0.7871 5.2437 1.5581 10.419 2.3125 15.526 17.567 0.3329 35.943 0.7451 50.956 1.0817-9.643-42.063-14.795-71.896-12.675-72.32 2.1077-0.4215 8.9343 29.511 16.955 75.828-17.446 0.3412-38.819 0.7441-60.155 1.0817-0.7746-5.5963-1.556-11.287-2.343-17.062-4.6086-33.815-8.8942-66.72-11.995-91.197 37.793-1.0005 61.242-0.1111 61.242 1.7195z"/>
 </g>
</svg>
